PathFileType	4	(X/Y/Z)	C:\Users\86182\Documents\cortex\Trimmed_M4_L2.trc
DataRate	CameraRate	NumFrames	NumMarkers	Units	OrigDataRate	OrigDataStartFrame	OrigNumFrames
100.00	100.00	      84	2	mm	100.00	551	      1101
Frame#	Time	gripper			box			
		X1	Y1	Z1	X2	Y2	Z2	

551	5.500	276.23700	151.25954	292.54431	276.75385	149.40923	156.48592	
552	5.510	276.23694	151.25951	292.54422	276.74692	149.41145	156.48431	
553	5.520	276.23694	151.25952	292.54425	276.73981	149.41573	156.48308	
554	5.530	276.23712	151.25957	292.54437	276.73367	149.42101	156.48270	
555	5.540	276.23761	151.25974	292.54477	276.72906	149.42625	156.48355	
556	5.550	276.23840	151.25999	292.54544	276.72549	149.43112	156.48584	
557	5.560	276.23944	151.26035	292.54633	276.72308	149.43500	156.48926	
558	5.570	276.24042	151.26067	292.54712	276.72324	149.43658	156.49272	
559	5.580	276.24106	151.26088	292.54761	276.72684	149.43536	156.49493	
560	5.590	276.24112	151.26091	292.54770	276.73303	149.43230	156.49544	
561	5.600	276.24069	151.26076	292.54733	276.74020	149.42850	156.49471	
562	5.610	276.24002	151.26054	292.54678	276.74716	149.42439	156.49355	
563	5.620	276.23944	151.26035	292.54630	276.75320	149.42036	156.49268	
564	5.630	276.23917	151.26025	292.54608	276.75778	149.41702	156.49252	
565	5.640	276.23923	151.26027	292.54611	276.76102	149.41449	156.49315	
566	5.650	276.23950	151.26036	292.54636	276.76303	149.41272	156.49442	
567	5.660	276.23981	151.26047	292.54660	276.76312	149.41219	156.49626	
568	5.670	276.23993	151.26050	292.54669	276.76065	149.41325	156.49831	
569	5.680	276.23965	151.26041	292.54645	276.75623	149.41531	156.49966	
570	5.690	276.23883	151.26015	292.54578	276.75116	149.41734	156.49936	
571	5.700	276.23746	151.25969	292.54468	276.74637	149.41876	156.49731	
572	5.710	276.23572	151.25911	292.54324	276.74234	149.41937	156.49414	
573	5.720	276.23398	151.25853	292.54181	276.73987	149.41904	156.49057	
574	5.730	276.23257	151.25807	292.54065	276.73962	149.41795	156.48715	
575	5.740	276.23187	151.25783	292.54007	276.74179	149.41660	156.48444	
576	5.750	276.23199	151.25787	292.54019	276.74625	149.41515	156.48280	
577	5.760	276.23303	151.25821	292.54102	276.75259	149.41347	156.48242	
578	5.770	276.23465	151.25876	292.54236	276.76031	149.41158	156.48322	
579	5.780	276.23660	151.25940	292.54398	276.76889	149.40942	156.48489	
580	5.790	276.23862	151.26007	292.54562	276.77798	149.40686	156.48689	
581	5.800	276.24045	151.26068	292.54712	276.78659	149.40413	156.48880	
582	5.810	276.24188	151.26115	292.54831	276.79352	149.40178	156.49036	
583	5.820	276.24280	151.26146	292.54907	276.79834	149.40015	156.49139	
584	5.830	276.24326	151.26161	292.54944	276.80142	149.39919	156.49165	
585	5.840	276.24341	151.26166	292.54956	276.80310	149.39880	156.49113	
586	5.850	276.24347	151.26169	292.54962	276.80331	149.39900	156.49010	
587	5.860	276.24362	151.26173	292.54974	276.80182	149.39984	156.48897	
588	5.870	276.24390	151.26183	292.54996	276.79834	149.40152	156.48817	
589	5.880	276.24411	151.26190	292.55014	276.79263	149.40419	156.48805	
590	5.890	276.24417	151.26192	292.55020	276.78506	149.40759	156.48862	
591	5.900	276.24396	151.26184	292.55002	276.77646	149.41122	156.48985	
592	5.910	276.24335	151.26164	292.54950	276.76788	149.41469	156.49171	
593	5.920	276.24240	151.26132	292.54871	276.76022	149.41776	156.49414	
594	5.930	276.24130	151.26096	292.54782	276.75436	149.42012	156.49678	
595	5.940	276.24039	151.26067	292.54706	276.75085	149.42162	156.49925	
596	5.950	276.23999	151.26053	292.54675	276.74963	149.42252	156.50119	
597	5.960	276.24017	151.26057	292.54688	276.75037	149.42322	156.50238	
598	5.970	276.24072	151.26077	292.54733	276.75278	149.42358	156.50281	
599	5.980	276.24136	151.26099	292.54785	276.75687	149.42300	156.50235	
600	5.990	276.24182	151.26114	292.54825	276.76245	149.42104	156.50085	
601	6.000	276.24197	151.26118	292.54834	276.76898	149.41776	156.49820	
602	6.010	276.24173	151.26111	292.54816	276.77579	149.41335	156.49442	
603	6.020	276.24121	151.26093	292.54773	276.78198	149.40816	156.48988	
604	6.030	276.24054	151.26071	292.54721	276.78680	149.40294	156.48552	
605	6.040	276.23993	151.26051	292.54669	276.78995	149.39865	156.48238	
606	6.050	276.23947	151.26036	292.54633	276.79190	149.39577	156.48109	
607	6.060	276.23929	151.26028	292.54614	276.79337	149.39420	156.48160	
608	6.070	276.23938	151.26031	292.54626	276.79443	149.39357	156.48347	
609	6.080	276.23969	151.26042	292.54651	276.79456	149.39383	156.48631	
610	6.090	276.23999	151.26053	292.54675	276.79303	149.39499	156.48956	
611	6.100	276.24005	151.26054	292.54681	276.78958	149.39699	156.49252	
612	6.110	276.23962	151.26041	292.54645	276.78473	149.39949	156.49448	
613	6.120	276.23849	151.26003	292.54553	276.77945	149.40199	156.49507	
614	6.130	276.23672	151.25943	292.54407	276.77451	149.40392	156.49426	
615	6.140	276.23456	151.25873	292.54227	276.77051	149.40468	156.49228	
616	6.150	276.23257	151.25806	292.54065	276.76794	149.40407	156.48962	
617	6.160	276.23135	151.25766	292.53961	276.76718	149.40257	156.48711	
618	6.170	276.23120	151.25760	292.53949	276.76801	149.40118	156.48566	
619	6.180	276.23212	151.25790	292.54025	276.76990	149.40079	156.48596	
620	6.190	276.23395	151.25851	292.54175	276.77222	149.40157	156.48799	
621	6.200	276.23627	151.25928	292.54367	276.77472	149.40289	156.49075	
622	6.210	276.23856	151.26004	292.54556	276.77768	149.40382	156.49301	
623	6.220	276.24045	151.26068	292.54712	276.78143	149.40384	156.49409	
624	6.230	276.24173	151.26109	292.54816	276.78583	149.40297	156.49423	
625	6.240	276.24237	151.26132	292.54871	276.79010	149.40182	156.49396	
626	6.250	276.24255	151.26137	292.54883	276.79333	149.40092	156.49353	
627	6.260	276.24246	151.26135	292.54877	276.79544	149.40021	156.49277	
628	6.270	276.24240	151.26134	292.54871	276.79669	149.39929	156.49155	
629	6.280	276.24261	151.26140	292.54889	276.79721	149.39819	156.49011	
630	6.290	276.24313	151.26158	292.54932	276.79666	149.39745	156.48889	
631	6.300	276.24377	151.26178	292.54987	276.79498	149.39755	156.48813	
632	6.310	276.24426	151.26195	292.55023	276.79263	149.39847	156.48761	
633	6.320	276.24438	151.26199	292.55035	276.79047	149.39981	156.48701	
634	6.330	276.24414	151.26190	292.55017	276.78870	149.40125	156.48634	
